<svg width="232" height="318" viewBox="0 0 232 318" fill="none" xmlns="http://www.w3.org/2000/svg">
<path d="M121.441 318C118.322 318 115.151 317.858 111.931 317.546C73.3761 313.837 51.4134 272.706 53.1744 236.723C53.3638 232.861 53.7426 228.981 54.1075 225.229C54.7915 218.209 55.4369 211.58 54.9704 204.964C54.9072 204.1 54.7178 202.969 54.1601 202.505C52.6061 201.208 47.4355 201.853 43.6611 202.324C39.4095 202.852 35.0072 203.402 31.2854 202.409C4.9519 195.404 3.17342 173.439 1.74572 155.786L1.47562 152.502C-0.123965 133.098 -2.10941 108.947 5.61488 89.7245C7.64593 84.6681 12.6972 78.5594 19.4008 76.3023C23.8733 74.8 28.3002 75.2606 32.2009 77.6382C36.1016 80.0122 38.273 84.7142 40.3742 89.2638C41.6546 92.0383 43.7979 96.68 45.3098 97.1123C45.6605 97.2186 46.5586 97.0096 47.9406 96.0954C55.7316 90.954 59.6639 78.648 63.1332 67.7913C64.4802 63.5818 65.7535 59.5991 67.2128 56.0806C75.2107 36.8119 85.1449 24.0418 100.436 13.3763C125.878 -4.37576 166.573 -4.46788 195.092 13.1566C215.963 26.0579 227.441 41.4289 230.17 60.1589C233.653 84.0339 229.953 100.734 219.173 109.79C212.396 115.484 203.426 117.862 193.222 116.65C185.105 115.69 176.539 112.43 169.126 107.774C175.977 124.304 181.892 139.533 184.28 146.613C188.076 157.873 199.459 195.794 186.354 210.988C183.102 214.754 176.868 218.783 165.657 216.59C163.107 216.09 159.61 215.126 155.569 214.01C142.263 210.343 117.498 203.522 107.999 210.166C105.669 211.796 104.438 214.184 104.119 217.681C104.052 218.386 104.196 218.836 104.642 219.34C108.539 223.744 124.798 224.07 131.74 224.212C133.781 224.254 135.507 224.29 136.756 224.375C148.879 225.154 159.701 222.305 171.158 219.279C177.352 217.642 183.758 215.949 190.524 214.815C195.053 214.053 208.811 211.732 213.269 223.907C215.542 230.111 216.675 239.873 212.392 246.949C207.264 255.421 198.841 257.228 190.412 256.24C192.475 257.579 194.264 259.333 195.709 261.466C199.732 267.387 201.101 276.245 199.361 285.164C196.758 298.49 182.088 303.763 172.378 307.25L170.929 307.77C156.684 312.944 139.966 317.996 121.441 318ZM50.2909 192.187C53.9356 192.187 57.4259 192.842 60.169 195.121C62.7017 197.226 64.1259 200.308 64.4065 204.284C64.9292 211.711 64.2136 219.056 63.5225 226.168C63.1682 229.803 62.7999 233.566 62.6245 237.198C60.6391 277.776 87.1374 305.556 112.829 308.029C133.252 309.981 151.286 304.744 167.72 298.777L169.197 298.246C177.798 295.153 188.507 291.308 190.065 283.318C191.282 277.067 190.43 270.615 187.897 266.88C186.399 264.676 184.354 263.376 181.642 262.894C176.861 262.051 171.322 262.643 165.966 263.213C164.124 263.411 162.3 263.603 160.532 263.741C158.866 263.872 157.059 264.039 155.148 264.212C137.896 265.807 111.815 268.209 100.029 252.59C95.879 247.084 94.3846 238.955 96.3981 232.822C97.1102 230.65 98.2889 228.984 99.7657 227.709C98.9554 227.11 98.2222 226.447 97.5733 225.714C95.3773 223.23 94.3776 220.151 94.6828 216.803C95.2651 210.456 97.9241 205.581 102.597 202.31C115.719 193.122 141.19 200.145 158.045 204.787C161.911 205.85 165.247 206.771 167.45 207.204C175.658 208.812 178.335 205.719 179.212 204.706C186.452 196.308 182.267 170.303 175.314 149.695C172.533 141.45 165.359 123.273 157.586 104.84C156.389 107.742 154.664 110.478 152.064 112.831C143.189 120.863 127.797 119.931 119.406 118.659C107.472 116.852 97.5277 108.77 94.0654 98.0655C90.9189 88.3319 93.5708 78.2901 101.348 70.5161C109.942 61.9235 124.626 60.2794 134.63 62.3735C136.167 62.6959 137.598 63.0822 138.927 63.518C136.496 58.738 134.469 55.1983 133.083 53.5045C131.421 51.4671 131.705 48.4553 133.722 46.7758C135.742 45.0927 138.724 45.3832 140.387 47.4207C143.568 51.3219 148.97 61.9802 154.944 75.0551C160.434 64.4818 171.824 61.5692 181.067 63.4826C192.45 65.8389 200.101 74.8744 200.097 85.9756C200.094 96.4533 195.421 102.92 189.623 106.304C191.201 106.683 192.769 106.97 194.316 107.154C199.589 107.774 207.131 107.462 213.111 102.438C221.074 95.7517 223.73 81.6138 220.804 61.5479C218.503 45.8013 208.474 32.6379 190.146 21.3063C165.036 5.78652 127.99 5.75463 105.81 21.239C92.115 30.7883 83.1841 42.3112 75.9368 59.7727C74.6284 62.9192 73.4182 66.7105 72.1378 70.7251C68.1845 83.0914 63.7049 97.1052 53.1147 104.096C49.4736 106.499 45.9762 107.243 42.7104 106.304C37.0452 104.67 34.2565 98.6289 31.7975 93.2997C30.4365 90.3552 28.7457 86.6914 27.3145 85.8233C25.8166 84.9091 24.2065 84.7638 22.3929 85.3733C18.7378 86.5993 15.6017 90.2985 14.388 93.3174C7.51263 110.428 9.31918 132.358 10.9117 151.708L11.1818 155.007C12.8376 175.459 15.1808 188.236 33.6988 193.161C35.6667 193.686 39.143 193.25 42.507 192.835C45.0291 192.516 47.6986 192.187 50.2909 192.187ZM114.225 233.311C110.416 233.311 106.066 233.747 105.382 235.83C104.347 238.987 105.301 243.806 107.56 246.8C116.172 258.213 139.11 256.091 154.285 254.698C156.246 254.514 158.098 254.344 159.799 254.213C161.483 254.082 163.216 253.898 164.97 253.71C169.112 253.267 173.353 252.813 177.584 252.93C172.413 250.964 168.043 248.639 165.524 247.187C151.331 239.016 135.974 234.423 119.89 233.541L118.908 233.484C117.793 233.414 116.074 233.311 114.225 233.311ZM157.193 232.425C161.623 234.278 165.962 236.429 170.21 238.874C174.669 241.439 197.242 253.639 204.307 241.967C206.548 238.268 206.04 231.752 204.384 227.227C203.479 224.754 201.374 222.688 192.068 224.247C185.722 225.314 179.531 226.951 173.543 228.531C168.214 229.941 162.802 231.373 157.193 232.425ZM126.359 71.1184C119.708 71.1184 112.327 72.9964 108.006 77.3157C102.793 82.5244 101.039 88.8422 103.06 95.1032C105.417 102.395 112.387 107.934 120.809 109.209C132.115 110.917 141.432 109.613 145.747 105.712C149.598 102.229 150.307 96.6871 151.124 90.2666C151.138 90.1497 151.156 90.0363 151.17 89.9158C150.514 88.4241 149.865 86.9536 149.219 85.5008C145.799 78.974 142.768 73.8539 132.701 71.7385C130.768 71.3346 128.607 71.1184 126.359 71.1184ZM173.027 98.9619C175.619 99.7486 178.285 99.9434 180.702 99.5289C184.41 98.8982 190.63 96.2974 190.63 85.9792C190.63 78.0421 184.456 73.946 179.166 72.8511C173.178 71.6145 165.798 73.5279 162.809 80.5968C161.967 82.5882 161.465 84.8843 161.079 87.3469C161.472 87.967 161.883 88.5694 162.321 89.1611C164.998 92.7576 168.741 96.1237 173.027 98.9619Z" fill="white"/>
</svg>
